<svg width="1280" height="1280" version="1.1" xmlns="http://www.w3.org/2000/svg" desc="Created with imagetracer.js version 1.2.6" ><path fill="rgb(0,0,0)" stroke="rgb(0,0,0)" stroke-width="1" opacity="0" d="M 0 0 L 1280 0 L 1280 1280 L 0 1280 L 0 0 Z M 626 430 L 624 432 L 624 471 L 626 472 L 650 472 L 656 470 L 661 463 Q 663 453 657 451 L 660 443 L 658 434 L 651 430 L 626 430 Z M 706 435 L 703 436 L 702 440 L 681 470 L 681 474 L 693 476 Q 696 475 695 471 L 698 470 L 700 471 L 702 470 L 707 471 L 709 471 L 711 472 L 712 479 L 716 480 L 718 480 L 720 481 Q 728 484 725 476 L 725 474 Q 721 461 719 447 L 719 445 L 717 439 L 713 436 L 706 435 Z M 542 442 L 532 446 Q 526 449 525 457 L 527 465 L 535 470 L 548 470 L 549 472 L 546 473 L 544 473 L 542 474 L 534 471 L 530 475 L 529 479 L 530 484 L 539 486 L 542 485 L 544 486 L 552 485 L 560 480 L 563 475 Q 564 466 561 463 L 554 457 L 550 458 L 548 458 L 545 457 Q 538 459 539 455 L 543 454 L 545 455 L 547 454 L 554 456 L 556 453 L 557 444 Q 552 440 542 442 Z M 762 449 L 755 462 L 755 465 L 746 485 L 746 488 L 756 493 L 759 492 L 763 483 Q 765 484 764 481 L 766 481 L 769 497 Q 774 501 782 502 Q 784 501 783 497 L 783 495 L 778 475 L 795 467 Q 797 466 796 462 L 786 458 L 783 458 L 770 466 L 768 466 L 772 458 L 772 454 L 762 449 Z M 491 460 L 482 465 L 482 469 L 484 474 L 497 502 L 500 503 L 509 498 L 508 492 L 503 484 L 503 481 L 495 463 Q 494 459 491 460 Z M 826 477 L 824 478 L 807 504 L 803 513 L 807 516 L 829 529 L 834 528 L 837 522 L 836 520 L 820 510 L 822 507 L 832 513 Q 835 512 834 515 L 838 515 L 842 509 L 842 506 L 828 497 L 830 494 L 843 502 L 848 503 L 852 496 L 851 492 L 842 487 Q 839 488 840 485 L 826 477 Z M 439 487 L 431 493 L 431 496 L 452 528 L 455 528 L 476 515 Q 476 508 472 504 L 469 504 L 458 511 L 443 489 Q 444 485 439 487 Z M 403 512 L 384 528 L 380 533 L 384 540 L 387 541 L 389 545 Q 388 547 391 546 L 401 559 Q 400 561 403 560 L 406 564 L 412 561 L 423 551 Q 425 552 424 549 L 431 544 L 431 541 L 427 535 L 423 535 L 418 539 L 416 542 L 413 544 Q 410 543 411 546 L 407 545 L 412 541 L 413 538 L 419 534 L 419 531 L 416 527 Q 415 524 411 525 L 409 528 L 406 529 L 398 535 L 398 531 L 400 531 L 401 528 L 409 523 Q 408 520 411 521 L 411 517 Q 408 518 409 516 Q 408 511 403 512 Z M 878 513 L 876 515 Q 877 517 875 516 L 870 522 Q 871 524 868 523 L 868 525 L 866 525 L 856 538 Q 857 540 855 539 Q 851 540 852 546 L 859 552 L 862 552 L 866 546 Q 870 545 871 548 Q 868 552 869 561 L 877 568 L 880 568 L 882 563 L 882 554 L 887 554 L 889 554 L 893 552 L 900 543 L 900 536 Q 897 528 891 523 Q 888 524 889 522 L 884 517 Q 881 518 882 516 L 878 513 Z M 641 541 L 631 543 L 623 547 L 616 555 L 617 564 L 624 568 Q 632 569 637 567 L 639 567 L 651 562 L 656 574 L 657 581 L 657 583 L 660 590 L 661 599 L 661 601 L 664 614 L 664 624 L 665 625 L 664 652 Q 661 653 662 658 L 656 665 L 651 663 L 645 655 Q 646 652 643 653 L 643 650 L 640 645 L 637 633 L 637 631 L 634 625 L 634 620 L 631 611 L 630 602 L 630 600 L 623 580 L 612 565 L 599 556 L 583 550 L 573 548 L 571 549 L 569 548 Q 564 547 563 549 L 561 548 L 548 551 L 546 551 L 530 559 Q 520 567 515 581 L 501 586 L 495 591 L 492 593 L 485 601 L 480 613 Q 479 620 482 624 L 489 628 L 500 626 L 510 620 L 511 618 L 514 616 L 518 611 L 523 597 L 531 599 L 552 616 L 569 640 L 579 663 L 579 675 L 578 677 L 571 682 L 560 679 L 547 671 Q 544 672 545 669 L 530 658 Q 527 659 528 656 L 524 653 Q 520 654 521 651 L 518 649 Q 515 650 516 647 L 504 639 L 492 633 L 487 632 L 485 632 L 480 629 L 469 627 L 467 627 L 451 627 L 439 630 Q 421 638 409 653 Q 410 655 407 654 L 394 673 L 385 691 L 369 715 Q 370 717 367 716 L 357 729 L 343 739 Q 340 738 341 741 L 339 741 L 320 751 L 316 751 L 305 755 L 290 756 L 283 758 L 263 757 L 256 755 L 254 756 L 226 749 L 220 746 L 217 745 Q 211 748 211 757 L 231 765 L 247 768 L 249 768 Q 250 770 255 769 L 257 769 L 263 771 L 267 770 Q 272 769 274 771 L 277 770 L 281 770 L 283 771 L 304 769 L 319 765 L 321 765 L 344 755 L 361 743 L 361 741 L 364 741 Q 363 738 366 739 L 371 733 L 375 730 L 381 721 L 384 719 L 403 684 L 414 669 Q 413 666 416 667 L 419 663 L 421 660 L 438 646 L 447 642 L 453 641 L 456 640 L 465 640 L 466 641 L 468 640 L 479 643 L 487 647 L 490 647 L 498 651 L 546 687 L 564 695 Q 577 697 583 691 L 586 689 L 588 687 L 593 676 L 593 665 L 589 650 Q 582 632 571 620 Q 572 617 569 618 Q 566 611 560 606 L 557 604 L 554 599 Q 551 600 552 597 L 550 596 Q 547 597 548 594 L 529 583 L 533 576 L 541 568 L 550 564 L 558 563 L 561 562 L 579 563 L 589 566 L 596 571 L 598 571 Q 597 574 600 573 Q 609 581 615 593 L 624 636 L 632 659 L 640 672 L 644 675 L 652 679 L 654 678 L 657 679 L 661 678 L 668 673 L 675 661 L 679 640 L 678 620 L 677 619 L 677 611 L 676 610 L 674 592 L 665 558 L 678 556 L 694 557 L 696 559 L 699 559 L 715 566 L 726 575 Q 728 574 727 577 L 729 577 L 733 584 L 735 595 L 735 597 Q 737 598 736 603 L 736 605 L 735 606 L 732 630 L 729 636 L 728 647 L 726 653 L 726 675 L 732 687 L 743 691 L 747 690 L 749 690 Q 758 688 764 682 L 765 679 L 774 673 L 786 656 L 789 643 L 789 636 L 792 635 L 818 649 Q 821 648 820 651 L 830 656 Q 833 655 832 658 L 840 663 L 854 680 L 864 704 L 860 705 L 842 715 L 808 737 L 797 741 L 792 741 L 786 739 L 768 725 Q 758 719 746 716 Q 735 715 729 717 L 714 725 L 712 728 L 709 730 Q 706 729 707 732 L 700 737 L 698 740 L 672 759 L 656 767 L 647 769 L 645 769 L 636 770 L 634 770 L 631 768 L 625 759 L 625 757 L 623 755 L 622 750 L 616 738 L 613 735 Q 614 732 611 733 L 609 729 Q 606 730 607 727 L 594 720 L 586 719 L 584 719 Q 582 717 577 718 L 575 718 Q 564 719 558 725 L 546 739 L 537 755 L 533 759 Q 534 761 531 760 L 531 762 L 520 766 L 518 765 L 516 766 L 499 760 L 497 760 L 447 734 L 435 729 L 418 725 Q 403 724 397 732 Q 394 731 395 734 L 393 734 L 393 736 L 391 736 L 391 738 L 389 738 L 385 746 L 384 751 L 385 763 L 390 771 L 402 782 L 413 790 L 420 793 L 424 797 L 467 820 L 479 824 L 481 824 Q 485 828 493 828 L 495 828 L 502 831 L 532 835 L 533 836 L 535 835 L 541 837 L 544 836 L 553 838 L 556 837 L 557 838 L 576 838 L 578 839 L 581 838 L 582 839 L 600 839 L 602 839 L 604 838 L 607 839 L 611 838 L 630 838 L 632 838 L 651 837 L 653 837 L 690 833 L 692 833 L 701 831 L 715 830 L 719 828 L 721 829 L 764 821 L 767 819 L 774 818 L 776 818 L 785 815 L 790 815 Q 791 811 793 814 L 823 805 L 830 801 L 842 797 L 861 784 L 864 782 L 878 766 L 884 751 L 884 745 L 885 742 L 884 722 L 881 709 L 898 703 L 900 701 L 922 695 L 924 695 L 928 693 L 936 692 L 938 692 L 947 691 L 951 691 Q 956 693 958 690 Q 959 692 964 691 L 966 691 L 980 695 Q 981 698 983 696 L 1000 708 L 1003 710 L 1017 726 L 1020 727 L 1025 735 L 1030 737 L 1032 740 Q 1034 739 1033 742 L 1046 749 L 1051 750 L 1054 751 L 1069 751 L 1070 750 L 1072 751 L 1072 737 L 1068 738 L 1051 736 Q 1040 732 1034 723 Q 1031 724 1032 721 L 1030 721 L 1024 713 L 1001 691 L 987 683 L 978 681 L 975 679 L 973 680 L 969 678 L 960 677 L 957 678 L 951 677 L 949 677 L 935 678 L 922 681 L 920 681 L 914 683 L 912 683 L 906 685 Q 904 688 903 686 L 877 697 L 874 695 L 870 683 L 860 665 Q 849 652 836 643 L 798 623 L 789 620 L 785 617 L 783 610 L 775 598 Q 771 592 764 589 L 760 589 L 756 591 L 752 597 Q 751 606 754 610 L 758 616 L 770 625 L 772 625 L 775 629 L 776 639 L 776 641 L 772 653 L 766 661 L 761 664 L 760 667 Q 757 666 758 669 L 756 669 L 756 671 L 754 671 L 745 677 L 740 676 L 738 672 L 738 656 L 747 618 L 748 594 L 748 592 L 744 578 L 736 565 L 726 557 L 709 548 L 692 543 L 683 543 L 682 542 L 666 543 L 657 546 L 650 542 L 641 541 Z M 924 558 L 920 564 L 912 585 L 902 593 L 902 596 L 909 603 L 912 603 L 923 595 L 948 591 L 950 589 L 944 579 Q 935 578 931 581 L 927 581 L 930 575 L 930 572 L 932 570 L 932 565 L 928 560 Q 927 557 924 558 Z M 357 562 L 350 565 L 333 584 L 334 588 L 362 610 L 366 611 L 375 600 Q 374 597 377 598 L 381 591 Q 380 585 382 584 Q 382 573 377 569 Q 374 570 375 568 L 366 562 L 357 562 Z M 590 866 L 588 868 L 588 910 L 589 910 L 597 910 Q 599 909 598 904 L 598 902 L 597 897 L 598 892 Q 600 887 607 888 L 609 894 L 609 896 L 609 910 L 619 910 L 619 886 L 618 885 L 616 882 Q 612 876 601 878 Q 599 882 597 879 L 598 877 Q 600 868 596 866 L 594 867 L 590 866 Z M 818 866 L 815 867 L 815 880 Q 811 876 803 878 L 801 878 L 796 881 L 791 888 Q 789 901 794 907 L 799 910 L 814 910 L 816 910 L 824 910 L 825 909 L 824 906 L 824 871 L 825 870 L 824 868 L 822 866 L 818 866 Z M 457 869 L 457 908 Q 455 909 458 910 L 467 910 L 467 896 L 470 895 L 479 895 L 480 896 L 485 894 L 484 886 L 482 885 L 467 885 L 467 878 L 485 879 L 486 877 L 486 875 Q 487 869 486 869 L 457 869 Z M 649 869 L 649 910 L 677 910 L 679 909 L 683 904 L 683 902 L 683 900 L 684 898 L 682 892 L 679 889 Q 678 886 681 887 L 682 884 L 681 875 L 674 869 L 649 869 Z M 495 878 L 493 880 L 493 910 L 503 910 L 503 892 Q 506 892 505 889 L 512 888 L 513 887 Q 514 880 512 878 Q 506 877 504 880 L 502 880 L 502 878 L 495 878 Z M 528 878 L 524 880 Q 517 884 516 893 L 517 901 L 519 905 L 526 910 L 542 910 L 548 905 L 544 900 L 549 898 L 549 892 L 547 885 Q 543 876 528 878 Z M 563 878 L 560 879 Q 555 882 554 889 L 557 896 L 567 900 Q 570 899 569 902 L 565 902 L 559 899 L 555 899 L 553 904 L 554 908 L 558 910 L 575 910 Q 580 908 580 900 L 580 898 L 579 896 Q 575 890 567 889 L 566 887 L 576 889 Q 580 888 579 882 L 574 878 L 563 878 Z M 694 878 L 692 880 L 692 910 L 693 910 L 702 910 L 702 893 L 704 889 L 711 888 L 712 887 Q 714 880 711 878 Q 705 877 704 880 Q 701 877 694 878 Z M 728 878 L 722 881 L 716 889 L 716 901 L 719 906 L 726 910 L 742 910 L 746 907 Q 747 901 743 900 L 748 898 Q 750 887 745 883 L 740 879 L 738 879 L 737 878 L 728 878 Z M 764 878 L 756 881 L 757 889 Q 763 890 767 887 Q 771 886 773 889 L 770 890 L 765 889 L 759 891 L 754 896 L 753 900 L 754 905 L 759 910 L 783 910 L 784 909 L 783 904 L 783 886 L 781 883 L 776 878 L 764 878 Z " /><path fill="rgb(0,0,0)" stroke="rgb(0,0,0)" stroke-width="1" opacity="0" d="M 637 441 Q 643.2 440.1 646 442 L 644.5 445 L 637 445 L 637 441 Z " /><path fill="rgb(0,0,0)" stroke="rgb(0,0,0)" stroke-width="1" opacity="0" d="M 706.5 454 Q 709.3 455.4 708 460 L 703 458.5 L 704 456 Q 706.8 457 706.5 454 Z " /><path fill="rgb(0,0,0)" stroke="rgb(0,0,0)" stroke-width="1" opacity="0" d="M 638.5 456 L 644.5 457 Q 645.8 454.8 647 457.5 Q 648.3 461.3 644.5 460 L 642.5 460 L 638.5 461 L 637 457.5 L 638.5 456 Z " /><path fill="rgb(0,0,0)" stroke="rgb(0,0,0)" stroke-width="1" opacity="0" d="M 880.5 531 L 885 533 L 887 537.5 L 882.5 542 L 880.5 540 L 876 536.5 L 880.5 531 Z " /><path fill="rgb(0,0,0)" stroke="rgb(0,0,0)" stroke-width="1" opacity="0" d="M 358.5 575 L 361.5 576 L 367 579.5 Q 370.4 582.3 369 589 Q 366.3 587.9 367 590.5 L 364.5 594 L 350 583 L 350 581 Q 352.7 582.1 352 579.5 L 353 577 L 358.5 575 Z " /><path fill="rgb(0,0,0)" stroke="rgb(0,0,0)" stroke-width="1" opacity="0" d="M 508.5 597 L 508 598.5 L 507 603 Q 504.3 601.9 505 604.5 L 502 609 L 494.5 613 L 495 611.5 L 503 600 L 508.5 597 Z " /><path fill="rgb(0,0,0)" stroke="rgb(0,0,0)" stroke-width="1" opacity="0" d="M 866.5 717 Q 869.8 715.9 869 718.5 L 870 721.5 L 872 729.5 L 872 742.5 Q 868 763 853.5 773 L 839.5 783 L 807.5 796 L 805.5 796 L 765.5 807 L 763.5 807 L 760.5 808 L 758.5 808 L 749.5 809 L 740.5 812 L 738.5 812 L 730.5 814 L 728.5 813 L 716.5 816 L 714.5 816 L 702.5 817 L 695.5 819 L 685.5 819 L 679.5 821 L 677.5 821 Q 672.7 819.7 671.5 822 L 669.5 821 L 662.5 823 L 660.5 822 L 649.5 824 Q 648.2 821.7 643.5 823 L 632.5 825 L 629.5 824 L 626.5 825 L 591.5 826 L 590.5 825 L 565.5 825 L 560.5 824 L 558.5 824 L 548.5 823 L 544.5 823 L 537.5 823 L 529.5 821 L 527.5 822 L 497.5 815 L 495.5 815 L 471.5 807 L 447.5 795 L 416.5 776 L 400 761.5 L 397 753.5 Q 399.9 745.4 406.5 741 Q 409.8 738.3 416.5 739 L 441.5 747 L 494.5 774 L 510.5 779 L 526.5 779 L 532.5 776 L 533.5 777 L 537.5 773 L 539 773 L 539 771 L 541 771 L 541 769 Q 543.7 770.1 543 767.5 L 548 762.5 L 548 760.5 Q 554.9 753.7 558 744 Q 560.7 745.1 560 742.5 L 561 740 L 568.5 734 L 573.5 732 L 575.5 733 Q 577 730.5 582.5 732 L 585.5 733 Q 596.7 734.3 602 741.5 L 604 744.5 L 607 748.5 L 614 767.5 L 621.5 778 L 629.5 783 L 642.5 784 L 653.5 782 L 661.5 779 L 681.5 769 L 708 748.5 L 708 747 L 710 747 Q 708.9 744.3 711.5 745 L 725.5 733 L 732.5 730 L 740.5 729 L 755.5 734 L 778.5 751 L 786.5 754 L 796.5 755 L 805.5 753 L 819.5 746 L 852.5 724 L 866.5 717 Z " /><path fill="rgb(0,0,0)" stroke="rgb(0,0,0)" stroke-width="1" opacity="0" d="M 660.5 878 L 662.5 878 Q 670.1 876.9 672 881.5 L 668.5 885 L 667.5 884 L 659 885 Q 657.5 879.6 660.5 878 Z " /><path fill="rgb(0,0,0)" stroke="rgb(0,0,0)" stroke-width="1" opacity="0" d="M 531.5 887 Q 537 886.5 539 889.5 L 528 890 Q 526.8 887 530.5 888 L 531.5 887 Z " /><path fill="rgb(0,0,0)" stroke="rgb(0,0,0)" stroke-width="1" opacity="0" d="M 729.5 887 L 731.5 887 L 734.5 888 Q 736.3 885.3 738 889.5 L 727.5 890 L 729.5 887 Z " /><path fill="rgb(0,0,0)" stroke="rgb(0,0,0)" stroke-width="1" opacity="0" d="M 806.5 887 L 809.5 887 L 814 890.5 L 815 894.5 L 814 897.5 L 811.5 901 L 806.5 902 L 802 899.5 L 800 894.5 L 803.5 888 L 806.5 887 Z " /><path fill="rgb(0,0,0)" stroke="rgb(0,0,0)" stroke-width="1" opacity="0" d="M 660.5 894 L 664.5 895 L 667.5 894 L 673 896.5 Q 674.5 900.9 671.5 900 L 670.5 901 L 659 901 Q 657.5 895.6 660.5 894 Z " /><path fill="rgb(0,0,0)" stroke="rgb(0,0,0)" stroke-width="1" opacity="0" d="M 766.5 898 Q 773.5 896.5 773 899.5 Q 771 903 764.5 902 Q 761.5 900.5 764.5 899 L 766.5 898 Z " /><path fill="rgb(0,0,0)" stroke="rgb(0,0,0)" stroke-width="1" opacity="0" d="M 528.5 899 L 540 899.5 Q 538.3 902.8 532.5 902 Q 528.5 901.5 528.5 899 Z " /><path fill="rgb(0,0,0)" stroke="rgb(0,0,0)" stroke-width="1" opacity="0" d="M 728 899 L 739 899.5 Q 737.8 903.3 731.5 902 L 728 901 L 728 899 Z " /><path fill="rgb(145,120,108)" stroke="rgb(145,120,108)" stroke-width="1" opacity="0.23529411764705882" d="M 625.5 430 L 650.5 430 L 658 434 L 660 442.5 L 659 446.5 L 656 449.5 Q 662.6 451.9 661 462.5 L 655.5 470 L 649.5 472 L 625.5 472 L 624 470.5 L 624 431.5 L 625.5 430 Z M 626 432 L 626 470 L 649 470 L 655 468 L 659 463 Q 660 455 657 452 L 653 450 L 658 444 L 657 437 L 650 432 L 626 432 Z " /><path fill="rgb(145,120,108)" stroke="rgb(145,120,108)" stroke-width="1" opacity="0.23529411764705882" d="M 705.5 435 L 712.5 436 L 717 438.5 L 719 444.5 L 719 446.5 Q 720.5 461.5 725 473.5 L 725 475.5 Q 727.8 483.8 719.5 481 L 717.5 480 L 715.5 480 L 712 478.5 L 711 472 L 708.5 471 L 706.5 471 L 701.5 470 L 699.5 471 L 697.5 470 L 695 471 Q 695.8 474.8 692.5 476 L 681 474 L 681 469.5 L 702 439.5 L 703 436 L 705.5 435 Z M 704 438 L 683 470 L 683 472 Q 686 474 693 473 L 695 468 L 712 470 L 713 477 Q 717 480 724 479 L 717 450 L 716 441 Q 712 437 704 438 Z " /><path fill="rgb(145,120,108)" stroke="rgb(145,120,108)" stroke-width="1" opacity="0.23529411764705882" d="M 636 439 Q 644.7 437.1 648 441.5 Q 648.8 446.3 645.5 447 L 636 447 L 636 439 Z M 637 441 L 637 445 L 645 445 L 646 442 Q 643 440 637 441 Z " /><path fill="rgb(145,120,108)" stroke="rgb(145,120,108)" stroke-width="1" opacity="0.23529411764705882" d="M 541.5 442 Q 552.5 440.4 557 444 L 556 452.5 L 553.5 456 L 546.5 454 L 544.5 455 L 542.5 454 L 539 455 Q 537.6 459 544.5 457 L 547.5 458 L 549.5 458 L 553.5 457 L 561 462.5 Q 564.3 466.2 563 474.5 L 559.5 480 L 551.5 485 L 543.5 486 L 541.5 485 L 538.5 486 L 530 484 L 529 478.5 L 530 474.5 L 533.5 471 L 541.5 474 L 543.5 473 L 545.5 473 L 549 471.5 L 547.5 470 L 534.5 470 L 527 464.5 L 525 456.5 Q 526.1 449.1 531.5 446 L 541.5 442 Z M 543 444 L 534 447 Q 528 449 527 456 L 528 463 Q 531 467 537 468 L 549 468 L 550 469 Q 552 468 551 473 L 549 475 L 545 476 L 532 474 L 531 481 L 535 483 Q 539 482 541 484 Q 551 484 557 480 L 562 473 L 561 466 L 555 460 L 540 459 L 537 456 L 540 453 L 544 452 L 554 453 L 555 447 L 553 444 L 543 444 Z " /><path fill="rgb(145,120,108)" stroke="rgb(145,120,108)" stroke-width="1" opacity="0.23529411764705882" d="M 707.5 449 L 709 450.5 L 710 462 L 701 461 L 701 458.5 L 707.5 449 Z M 707 454 Q 707 457 704 456 L 703 459 L 708 460 Q 709 455 707 454 Z " /><path fill="rgb(145,120,108)" stroke="rgb(145,120,108)" stroke-width="1" opacity="0.23529411764705882" d="M 762.5 449 L 772 453.5 L 772 457.5 L 768 465.5 L 769.5 466 L 782.5 458 L 785.5 458 L 796 462 Q 797 465.8 794.5 467 L 778 475 L 783 494.5 L 783 496.5 Q 784 501 781.5 502 Q 773.8 500.8 769 496.5 L 766 481 L 764 481 Q 765.1 483.7 762.5 483 L 759 492 L 756.5 493 L 748.5 490 L 746 487.5 L 746 484.5 L 750 477.5 L 760 450 L 762.5 449 Z M 762 452 L 748 487 Q 751 490 757 490 L 760 483 L 767 479 L 771 496 L 780 499 L 781 500 L 780 490 L 776 475 L 779 472 L 792 466 L 793 463 L 785 460 L 768 469 L 765 469 L 770 456 Q 767 452 762 452 Z " /><path fill="rgb(145,120,108)" stroke="rgb(145,120,108)" stroke-width="1" opacity="0.23529411764705882" d="M 636 454 L 645.5 454 L 649 456.5 Q 649.8 461.3 646.5 462 Q 641 460.5 639.5 463 L 635 460.5 L 636 457.5 L 636 455.5 L 636 454 Z M 639 456 L 637 458 L 639 461 L 642 460 L 644 461 L 647 460 L 646 456 L 643 457 L 641 457 L 639 456 Z " /><path fill="rgb(145,120,108)" stroke="rgb(145,120,108)" stroke-width="1" opacity="0.23529411764705882" d="M 490.5 460 Q 494.5 459.5 495 462.5 L 503 480.5 L 503 483.5 L 508 491.5 L 509 497.5 L 499.5 503 L 497 502 L 484 473.5 L 482 468.5 L 482 464.5 L 490.5 460 Z M 492 462 L 484 465 L 484 469 L 499 500 Q 504 500 507 497 L 494 465 L 492 462 Z " /><path fill="rgb(145,120,108)" stroke="rgb(145,120,108)" stroke-width="1" opacity="0.23529411764705882" d="M 825.5 477 L 840 485 Q 838.9 487.7 841.5 487 L 851 492 L 852 495.5 L 848 503 L 842.5 502 L 829.5 494 L 828 497 L 842 505.5 L 842 508.5 L 837.5 515 L 834 515 Q 835.3 512 831.5 513 L 821.5 507 L 820 510 L 836 519.5 L 837 521.5 L 834 528 L 828.5 529 L 806.5 516 L 803 512.5 L 807 503.5 L 823.5 478 L 825.5 477 Z M 823 480 L 805 512 L 831 527 Q 834 525 834 520 L 818 511 Q 818 506 822 504 L 837 513 L 840 507 L 826 498 Q 826 493 830 491 L 846 501 L 850 495 L 829 481 L 823 480 Z " /><path fill="rgb(145,120,108)" stroke="rgb(145,120,108)" stroke-width="1" opacity="0.23529411764705882" d="M 438.5 487 Q 443.9 485.1 443 488.5 L 457.5 511 L 468.5 504 L 471.5 504 Q 475.6 506.9 476 513.5 L 454.5 528 L 451.5 528 L 431 495.5 L 431 492.5 L 438.5 487 Z M 440 489 L 433 494 L 453 526 L 474 513 L 471 506 L 457 513 L 442 491 Q 443 488 440 489 Z " /><path fill="rgb(145,120,108)" stroke="rgb(145,120,108)" stroke-width="1" opacity="0.23529411764705882" d="M 402.5 512 Q 408.3 511.3 409 515.5 Q 408.3 518.1 411 517 L 411 521 Q 408.3 519.9 409 522.5 L 401 528 L 399.5 531 L 397 532.5 L 398 535 L 405.5 529 L 409 528 L 410.5 525 Q 415 524 416 526.5 L 419 530.5 L 419 533.5 L 413 538 L 411.5 541 L 407 544.5 L 411 546 Q 409.9 543.3 412.5 544 L 416 542 L 417.5 539 L 422.5 535 L 426.5 535 L 431 540.5 L 431 543.5 L 411.5 561 L 405.5 564 L 403 560 Q 400.3 561.1 401 558.5 L 391 546 Q 388.3 547.1 389 544.5 L 387 541 L 384 539.5 L 380 532.5 L 383.5 528 L 402.5 512 Z M 404 514 L 382 533 L 384 537 L 406 561 L 411 559 L 429 543 L 426 537 L 424 537 L 409 549 Q 404 549 405 544 L 417 533 L 414 527 L 412 527 L 401 537 L 397 537 L 395 532 L 406 523 L 409 519 L 404 514 Z " /><path fill="rgb(145,120,108)" stroke="rgb(145,120,108)" stroke-width="1" opacity="0.23529411764705882" d="M 877.5 513 L 882 515.5 Q 881.3 517.8 883.5 517 L 889 521.5 Q 888.3 523.8 890.5 523 Q 896.8 527.8 900 535.5 L 900 542.5 L 892.5 552 L 888.5 554 L 886.5 554 L 882 554 L 882 562.5 L 879.5 568 L 876.5 568 L 869 560.5 Q 868.1 552.1 871 547.5 Q 869.8 545 866 546 L 861.5 552 L 858.5 552 L 852 545.5 Q 851 540 854.5 539 Q 856.8 539.8 856 537.5 L 866 525 L 868 525 L 868 523 Q 870.7 524.1 870 521.5 L 874.5 516 Q 876.8 516.8 876 514.5 L 877.5 513 Z M 878 516 L 854 543 L 854 545 L 860 550 L 868 543 L 873 548 L 871 555 L 871 560 L 877 565 L 879 565 L 881 552 Q 888 553 892 550 L 898 542 Q 899 535 896 532 L 880 516 L 878 516 Z " /><path fill="rgb(145,120,108)" stroke="rgb(145,120,108)" stroke-width="1" opacity="0.23529411764705882" d="M 880.5 528 L 888 534.5 L 889 537.5 L 886.5 542 L 880.5 543 L 873 536.5 L 880.5 528 Z M 881 531 L 876 537 L 881 540 L 883 542 L 887 538 L 885 533 L 881 531 Z " /><path fill="rgb(145,120,108)" stroke="rgb(145,120,108)" stroke-width="1" opacity="0.23529411764705882" d="M 640.5 541 L 649.5 542 L 656.5 546 L 666.5 543 L 681.5 542 L 682.5 543 L 691.5 543 L 708.5 548 L 725.5 557 L 736 565 L 744 577.5 L 748 591.5 L 748 593.5 L 747 617.5 L 738 655.5 L 738 671.5 L 740 676 L 744.5 677 L 753.5 671 L 756 671 L 756 669 L 758 669 Q 756.9 666.3 759.5 667 L 761 664 L 766 660.5 L 772 652.5 L 776 640.5 L 776 638.5 L 775 628.5 L 771.5 625 L 769.5 625 L 758 615.5 L 754 609.5 Q 750.5 605.5 752 596.5 L 755.5 591 L 759.5 589 L 763.5 589 Q 770.9 591.6 775 597.5 L 783 609.5 L 785 616.5 L 788.5 620 L 797.5 623 L 835.5 643 Q 849.4 652.1 860 664.5 L 870 682.5 L 874 694.5 L 876.5 697 L 902.5 686 Q 904 688.5 905.5 685 L 911.5 683 L 913.5 683 L 919.5 681 L 921.5 681 L 934.5 678 L 948.5 677 L 950.5 677 L 956.5 678 L 959.5 677 L 968.5 678 L 972.5 680 L 974.5 679 L 977.5 681 L 986.5 683 L 1000.5 691 L 1024 712.5 L 1030 721 L 1032 721 Q 1030.9 723.7 1033.5 723 Q 1042.3 736.2 1062.5 738 L 1065.5 737 L 1067.5 738 L 1072 737 Q 1073.3 740.7 1067.5 739 L 1066.5 740 L 1056.5 740 L 1042.5 734 L 1023 715.5 L 1007.5 699 Q 996 688.5 979.5 683 L 967.5 680 L 949.5 679 L 948.5 680 L 929.5 681 L 912.5 685 Q 893.3 690.3 877.5 699 L 874 699 L 861 669.5 L 845.5 653 L 824.5 639 L 786.5 621 L 784 618.5 Q 779.2 602.3 767.5 593 L 759.5 591 L 755 594.5 Q 752.5 598 754 605.5 L 762.5 617 L 776 625 L 777 628.5 L 777 643.5 L 774 652.5 L 766 664 Q 763.3 662.9 764 665.5 L 751.5 676 L 741.5 679 L 737 673.5 L 736 661.5 L 737 660.5 L 737 652.5 L 740 637.5 L 745 618.5 L 746 590.5 Q 742.6 570.9 728.5 562 Q 709.3 545.7 675.5 544 L 655.5 548 L 648.5 544 Q 643 545.5 641.5 543 L 628.5 546 L 619 552 L 617 558.5 L 621.5 565 L 632.5 566 L 649.5 560 L 653 560 L 659 578.5 L 664 602.5 L 664 610.5 L 666 619.5 L 666 647.5 L 664 656.5 L 659.5 664 L 653.5 667 L 648 664 L 641 651.5 L 637 640.5 L 625 588.5 L 620 578.5 L 612 568 L 602.5 561 L 588.5 554 L 571.5 550 L 561.5 550 L 546.5 553 L 538.5 556 Q 528.8 560.3 523 568.5 L 517 581.5 L 514.5 584 Q 496.5 587 488 599.5 L 482 611.5 L 482 619.5 L 485.5 624 Q 488.7 626.3 495.5 625 Q 506.6 621.6 513 613.5 L 521 599.5 L 522 594 L 531.5 597 Q 544.8 605.7 555 617.5 Q 569.1 632.9 578 653.5 L 581 663.5 L 581 674.5 L 575.5 682 L 569.5 684 Q 560 682.5 553.5 678 L 514.5 649 L 492.5 636 L 478.5 631 L 468.5 629 L 451.5 629 L 439.5 632 L 431.5 636 Q 417.8 644.3 408 656.5 L 395 674.5 L 384 693.5 L 383 697.5 L 372 714.5 L 353.5 734 Q 340.7 744.2 324.5 751 L 308.5 756 L 291.5 759 L 261.5 759 L 231.5 753 L 217.5 747 Q 213.3 749.9 213 756 L 228.5 762 L 248.5 767 L 263.5 768 L 264.5 769 L 280.5 769 L 281.5 768 L 302.5 767 L 327.5 760 Q 352.6 749.6 370 731.5 L 374 726.5 L 386 711.5 L 408 672.5 L 421 656 L 435.5 645 L 445.5 640 L 454.5 638 L 466.5 638 L 479.5 641 L 497.5 649 L 548.5 686 L 561.5 692 L 573.5 693 Q 581.8 691.3 586 685.5 Q 592.7 678.7 591 663.5 Q 579.4 623.6 551.5 600 Q 541.5 589.7 527 585 L 529 577.5 L 537.5 568 L 549.5 562 L 559.5 560 L 574.5 560 Q 598 564.5 610 580.5 L 618 596.5 L 623 624.5 L 631 651.5 L 638 665.5 L 644.5 673 Q 648.7 677.3 658.5 676 L 668 669.5 L 675 654.5 L 677 632.5 L 676 631.5 L 676 615.5 L 675 614.5 L 673 596.5 L 667 570.5 L 662 557.5 Q 670.8 551.8 687.5 554 Q 713.2 559.3 729 574.5 L 736 586.5 L 737 608.5 L 736 609.5 L 735 622.5 L 728 650.5 L 727 671.5 Q 728.6 681 734.5 686 Q 738.5 689.5 747.5 688 L 762.5 680 L 779 663.5 Q 788.3 652.6 787 632 L 789.5 632 L 826.5 651 Q 840 659 850 670.5 L 857 681.5 L 866 705 L 847.5 714 L 809.5 738 L 797.5 743 L 790.5 743 L 783.5 740 Q 771.2 728.3 754.5 721 L 744.5 718 L 732.5 718 L 718.5 724 L 703 736 Q 704.1 738.7 701.5 738 Q 689.5 751 673.5 760 L 649.5 771 L 633.5 772 L 626 765.5 L 616 741.5 L 604.5 728 Q 593.6 719.4 573.5 720 Q 559.3 723.3 552 733.5 L 537 757.5 L 528.5 766 L 522.5 768 L 516.5 768 L 494.5 761 L 433.5 731 L 422.5 728 L 407.5 728 Q 397.6 731.1 392 738.5 L 386 749.5 L 386 759.5 L 393 772 Q 395.7 770.9 395 773.5 Q 433.1 804.9 483.5 824 L 507.5 830 L 525.5 832 L 526.5 833 L 533.5 833 L 534.5 834 L 555.5 835 L 556.5 836 L 577.5 836 L 578.5 837 L 605.5 837 L 606.5 836 L 650.5 835 L 651.5 834 L 663.5 834 L 664.5 833 L 673.5 833 L 674.5 832 L 699.5 830 L 706.5 828 L 736.5 824 L 779.5 815 L 783.5 813 L 809.5 807 L 833.5 798 Q 857.8 788.3 873 769.5 Q 880.3 760.3 883 746.5 L 883 726.5 L 879 708.5 L 910.5 695 L 937.5 689 L 956.5 688 L 957.5 689 L 965.5 689 L 974.5 691 L 988.5 697 Q 1004.4 706.6 1016 720.5 L 1033.5 739 L 1049.5 748 L 1068.5 749 L 1072 748 L 1071.5 751 L 1069.5 750 L 1068.5 751 L 1053.5 751 L 1050.5 750 L 1037.5 745 L 1033 742 Q 1034.1 739.3 1031.5 740 L 1030 737 L 1025 735 L 1020 727 L 1017 725.5 L 1002.5 710 L 999.5 708 L 982.5 696 Q 981 698.5 979.5 695 L 965.5 691 L 963.5 691 Q 958.8 692.3 957.5 690 Q 956 692.5 950.5 691 L 946.5 691 L 937.5 692 L 935.5 692 L 927.5 693 L 923.5 695 L 921.5 695 L 899.5 701 L 897.5 703 L 881 709 L 884 721.5 L 885 741.5 L 884 744.5 L 884 750.5 L 878 765.5 L 863.5 782 L 860.5 784 L 841.5 797 L 829.5 801 L 822.5 805 L 792.5 814 Q 791 811.5 789.5 815 L 784.5 815 L 775.5 818 L 773.5 818 L 766.5 819 L 763.5 821 L 720.5 829 L 718.5 828 L 714.5 830 L 700.5 831 L 691.5 833 L 689.5 833 L 652.5 837 L 650.5 837 L 631.5 838 L 629.5 838 L 610.5 838 L 606.5 839 L 603.5 838 L 601.5 839 L 599.5 839 L 581.5 839 L 580.5 838 L 577.5 839 L 575.5 838 L 556.5 838 L 555.5 837 L 552.5 838 L 543.5 836 L 540.5 837 L 534.5 835 L 532.5 836 L 531.5 835 L 501.5 831 L 494.5 828 L 492.5 828 Q 484.5 828 480.5 824 L 478.5 824 L 466.5 820 L 423.5 797 L 419.5 793 L 412.5 790 L 401.5 782 L 390 770.5 L 385 762.5 L 384 750.5 L 385 745.5 L 389 738 L 391 738 L 391 736 L 393 736 L 393 734 L 395 734 Q 393.9 731.3 396.5 732 Q 402.7 724.7 416.5 725 L 434.5 729 L 446.5 734 L 496.5 760 L 498.5 760 L 515.5 766 L 517.5 766 Q 526.3 765.6 531 762 L 531 760 Q 533.7 761.1 533 758.5 L 537 754.5 L 546 738.5 L 557.5 725 Q 563.6 719.1 574.5 718 L 576.5 718 Q 582 716.5 583.5 719 L 585.5 719 L 593.5 720 L 607 727 Q 605.9 729.7 608.5 729 L 611 733 Q 613.7 731.9 613 734.5 L 616 737.5 L 622 749.5 L 623 754.5 L 625 756.5 L 625 758.5 L 630.5 768 L 633.5 770 L 635.5 770 L 644.5 769 L 646.5 769 L 655.5 767 L 671.5 759 L 698 740 L 699.5 737 L 707 732 Q 705.9 729.3 708.5 730 L 712 728 L 713.5 725 L 728.5 717 Q 735.2 714.7 745.5 716 Q 758.1 718.9 767.5 725 L 785.5 739 L 791.5 741 L 796.5 741 L 807.5 737 L 841.5 715 L 859.5 705 L 864 704 L 854 679.5 L 839.5 663 L 832 657.5 Q 832.8 654.9 829.5 656 L 820 651 Q 821.3 648 817.5 649 L 791.5 635 L 789 635.5 L 789 642.5 L 786 655.5 L 774 673 L 765 679 L 763.5 682 Q 757.7 687.7 748.5 690 L 746.5 690 L 742.5 691 L 732 686.5 L 726 674.5 L 726 652.5 L 728 646.5 L 729 635.5 L 732 629.5 L 735 605.5 L 736 604.5 L 736 602.5 Q 737.3 597.8 735 596.5 L 735 594.5 L 733 583.5 L 729 577 Q 726.3 578.1 727 575.5 L 714.5 566 L 698.5 559 L 695.5 559 L 693.5 557 L 677.5 556 L 665 558 L 674 591.5 L 676 609.5 L 677 610.5 L 677 618.5 L 678 619.5 L 679 639.5 L 675 660.5 L 667.5 673 L 660.5 678 L 656.5 679 L 653.5 678 L 651.5 678 Q 644 676.5 640 671.5 L 632 658.5 L 624 635.5 L 615 592.5 Q 609.4 580.6 599.5 573 Q 596.9 573.7 598 571 L 595.5 571 L 588.5 566 L 578.5 563 L 560.5 562 L 557.5 563 L 549.5 564 L 540.5 568 L 533 575.5 L 529 582.5 L 548 594 Q 546.9 596.7 549.5 596 L 557 602.5 Q 556.3 604.8 558.5 604 L 567 613.5 L 569 618 Q 571.7 616.9 571 619.5 Q 582.3 632.2 589 649.5 L 593 664.5 L 593 675.5 L 588 686.5 L 585.5 689 L 575.5 695 L 563.5 695 L 545.5 687 L 497.5 651 L 489.5 647 L 486.5 647 L 478.5 643 L 467.5 640 L 465.5 641 L 464.5 640 L 455.5 640 L 452.5 641 L 446.5 642 L 437.5 646 L 421 659.5 L 419 662.5 L 416 667 Q 413.3 665.9 414 668.5 L 403 683.5 L 384 719 L 381 720.5 L 374.5 730 L 371 732.5 L 366.5 738 L 364 739.5 L 364 741 Q 360.3 739.5 361 742.5 L 343.5 755 L 320.5 765 L 318.5 765 L 303.5 769 L 282.5 771 L 280.5 770 L 276.5 770 L 273.5 771 Q 272 768.5 266.5 770 L 262.5 771 L 256.5 769 L 254.5 769 Q 249.7 770.2 248.5 768 L 246.5 768 L 227.5 764 L 211 756.5 Q 211.2 748.2 216.5 745 L 219.5 746 L 225.5 749 L 253.5 756 L 255.5 756 L 282.5 758 L 289.5 756 L 304.5 755 L 315.5 751 L 319.5 751 L 338.5 741 L 341 741 Q 339.9 738.3 342.5 739 L 357 729 L 367 716 Q 369.7 717.1 369 714.5 L 385 690.5 L 394 672.5 L 407 654 Q 409.7 655.1 409 652.5 Q 420.8 638.3 438.5 630 L 450.5 627 L 466.5 627 L 468.5 627 L 479.5 629 L 484.5 632 L 486.5 632 L 491.5 633 L 503.5 639 L 516 647 Q 514.9 649.7 517.5 649 L 521 651 Q 519.9 653.7 522.5 653 L 528 656 Q 526.9 658.7 529.5 658 L 545 669 Q 543.9 671.7 546.5 671 L 559.5 679 L 570.5 682 L 578 676.5 L 579 674.5 L 579 662.5 L 569 639.5 L 552 616 L 530.5 599 L 523 597 L 518 610.5 L 513.5 616 L 511 617.5 L 509.5 620 L 499.5 626 L 488.5 628 L 482 623.5 Q 478.8 620.2 480 612.5 L 485 600.5 L 491.5 593 L 494.5 591 L 500.5 586 L 515 580.5 Q 519.5 567 529.5 559 L 545.5 551 L 547.5 551 L 560.5 548 L 562.5 549 Q 563.7 546.7 568.5 548 L 570.5 549 L 572.5 548 L 582.5 550 L 598.5 556 Q 609.4 562 617 571.5 L 625 583.5 L 630 599.5 L 630 601.5 L 631 610.5 L 634 619.5 L 634 624.5 L 637 630.5 L 637 632.5 L 640 644.5 L 643 649.5 L 643 653 Q 645.7 651.9 645 654.5 L 650.5 663 L 655.5 665 L 662 657.5 Q 661.4 652.9 664 651.5 L 665 624.5 L 664 623.5 L 664 613.5 L 661 600.5 L 661 598.5 L 660 589.5 L 657 582.5 L 657 580.5 L 656 573.5 L 650.5 562 L 638.5 567 L 636.5 567 Q 631.8 569.3 623.5 568 L 617 563.5 L 616 554.5 L 622.5 547 L 630.5 543 L 640.5 541 Z " /><path fill="rgb(145,120,108)" stroke="rgb(145,120,108)" stroke-width="1" opacity="0.23529411764705882" d="M 923.5 558 Q 927.3 557.3 928 559.5 L 932 564.5 L 932 569.5 L 930 571.5 L 930 574.5 L 927 580.5 L 930.5 581 Q 935.4 577.7 944 579 L 950 588.5 L 947.5 591 L 922.5 595 L 911.5 603 L 908.5 603 L 902 595.5 L 902 592.5 L 912 584.5 L 920 563.5 L 923.5 558 Z M 925 560 L 913 587 L 904 594 L 910 601 L 922 593 L 947 589 L 947 587 L 943 581 L 938 581 L 924 584 L 930 570 L 930 566 L 927 562 L 925 560 Z " /><path fill="rgb(145,120,108)" stroke="rgb(145,120,108)" stroke-width="1" opacity="0.23529411764705882" d="M 356.5 562 L 365.5 562 L 375 567.5 Q 374.3 569.8 376.5 569 Q 382.2 573.3 382 583.5 Q 379.5 585 381 590.5 L 376.5 598 Q 374.3 597.3 375 599.5 L 365.5 611 L 361.5 610 L 334 588 L 333 583.5 L 349.5 565 L 356.5 562 Z M 358 564 L 351 567 Q 341 575 335 586 L 363 608 L 366 608 L 376 596 L 380 587 Q 381 577 377 573 L 368 565 L 358 564 Z " /><path fill="rgb(145,120,108)" stroke="rgb(145,120,108)" stroke-width="1" opacity="0.23529411764705882" d="M 355.5 574 L 363.5 574 L 369 578.5 Q 371.8 581.2 371 587.5 L 364.5 596 L 348 584 Q 348.3 577.6 353.5 575 L 355.5 574 Z M 359 575 L 353 577 L 352 580 Q 353 582 350 581 L 350 583 L 365 594 L 367 591 Q 366 588 369 589 Q 370 582 367 580 L 362 576 L 359 575 Z " /><path fill="rgb(145,120,108)" stroke="rgb(145,120,108)" stroke-width="1" opacity="0.23529411764705882" d="M 510.5 594 Q 512.8 593.3 512 595.5 Q 508.3 606.8 499.5 613 L 492 616 L 492 611.5 L 498 602 L 510.5 594 Z M 508 598 L 503 600 L 495 612 L 495 613 L 502 609 L 505 605 Q 504 602 507 603 L 508 600 L 508 598 Z " /><path fill="rgb(145,120,108)" stroke="rgb(145,120,108)" stroke-width="1" opacity="0.23529411764705882" d="M 765.5 604 L 769 608.5 L 767.5 609 Q 763.8 607.2 765.5 604 Z " /><path fill="rgb(145,120,108)" stroke="rgb(145,120,108)" stroke-width="1" opacity="0.23529411764705882" d="M 867.5 714 Q 870.8 712.9 870 715.5 L 873 725.5 L 874 739.5 L 872 750.5 L 867 761.5 L 854.5 775 L 833.5 788 L 816.5 795 L 773.5 807 L 769.5 807 L 750.5 812 L 745.5 812 L 735.5 815 L 729.5 815 L 728.5 816 L 716.5 817 L 703.5 820 L 688.5 821 L 687.5 822 L 679.5 822 L 678.5 823 L 670.5 823 L 660.5 825 L 647.5 825 L 646.5 826 L 630.5 826 L 629.5 827 L 562.5 827 L 561.5 826 L 536.5 825 L 535.5 824 L 516.5 822 L 480.5 813 L 460.5 804 L 426.5 785 Q 411 776 399 763.5 Q 395.3 759.7 395 752.5 Q 398.3 743.8 405.5 739 Q 409.5 736 417.5 737 L 440.5 744 L 486.5 768 L 501.5 774 L 512.5 777 L 525.5 777 Q 537.1 774.1 543 765.5 L 558 741.5 L 566.5 733 Q 572.7 728.2 585.5 730 Q 596.7 732.3 603 739.5 L 611 753.5 L 618 770.5 L 623.5 777 L 631.5 781 L 640.5 782 L 655.5 779 L 678.5 768 L 697.5 755 L 725.5 731 Q 731.1 726.6 741.5 727 L 759.5 734 L 776.5 747 L 786.5 752 L 800.5 752 L 818.5 744 Q 841.1 727.1 867.5 714 Z M 867 717 L 853 724 L 820 746 L 806 753 L 797 755 L 787 754 L 779 751 L 756 734 L 741 729 L 733 730 L 726 733 L 712 745 Q 709 744 710 747 L 708 747 L 708 749 L 682 769 L 662 779 L 654 782 L 643 784 L 630 783 L 622 778 L 614 768 L 607 749 L 604 745 L 602 742 Q 597 734 586 733 L 583 732 Q 577 731 576 733 L 574 732 L 569 734 L 561 740 L 560 743 Q 561 745 558 744 Q 555 754 548 761 L 548 763 L 543 768 Q 544 770 541 769 L 541 771 L 539 771 L 539 773 L 538 773 L 534 777 L 533 776 L 527 779 L 511 779 L 495 774 L 442 747 L 417 739 Q 410 738 407 741 Q 400 745 397 754 L 400 762 L 417 776 L 448 795 L 474 808 L 496 815 L 498 815 L 528 822 L 545 823 L 549 823 L 559 824 L 561 824 L 566 825 L 591 825 L 592 826 L 627 825 L 630 824 L 633 825 L 644 823 Q 648 822 650 824 L 661 822 L 663 823 L 670 821 L 672 822 Q 673 820 678 821 L 680 821 L 686 819 L 696 819 L 703 817 L 717 816 L 729 813 L 731 814 L 750 809 L 759 808 L 761 808 L 764 807 L 766 807 L 806 796 L 808 796 L 840 783 L 854 773 Q 868 763 872 743 L 872 730 L 870 722 L 869 719 Q 870 716 867 717 Z " /><path fill="rgb(145,120,108)" stroke="rgb(145,120,108)" stroke-width="1" opacity="0.23529411764705882" d="M 589.5 866 L 593.5 867 L 595.5 866 Q 600 868 598 876.5 L 597 878.5 Q 598.8 881.8 600.5 878 Q 612.4 875.6 616 881.5 L 618 884.5 L 619 885.5 L 619 910 L 609 910 L 609 895.5 L 609 893.5 L 606.5 888 Q 599.6 887.1 598 891.5 L 597 896.5 L 598 901.5 L 598 903.5 Q 599.3 908.8 596.5 910 L 588.5 910 L 588 909.5 L 588 867.5 L 589.5 866 Z M 592 868 L 589 871 L 589 908 Q 591 911 596 909 L 596 892 L 597 890 Q 599 885 608 886 L 611 891 L 611 909 Q 611 910 617 909 L 618 907 L 618 905 L 617 886 L 611 880 Q 600 878 597 884 L 596 869 L 592 868 Z " /><path fill="rgb(145,120,108)" stroke="rgb(145,120,108)" stroke-width="1" opacity="0.23529411764705882" d="M 817.5 866 L 821.5 866 L 824 867.5 L 825 869.5 L 824 870.5 L 824 906.5 L 825 908.5 L 823.5 910 L 815.5 910 L 813.5 910 L 798.5 910 L 794 907 Q 789 901.3 791 887.5 L 795.5 881 L 800.5 878 L 802.5 878 Q 811.3 876.2 814.5 880 L 815 867 L 817.5 866 Z M 819 868 L 818 869 L 816 870 L 816 883 L 811 880 Q 800 878 797 883 L 792 892 Q 791 900 795 905 L 802 909 L 811 909 L 816 906 L 818 909 Q 823 910 823 909 L 823 869 L 819 868 Z " /><path fill="rgb(145,120,108)" stroke="rgb(145,120,108)" stroke-width="1" opacity="0.23529411764705882" d="M 457 869 L 484.5 869 L 486 870.5 L 487 875.5 L 484.5 879 L 467 878 L 467 885 L 481.5 885 L 484 886 L 485 893.5 L 479.5 896 L 478.5 895 L 469.5 895 L 467 896 L 467 910 L 457.5 910 Q 454.8 908.8 457 907.5 L 457 869 Z M 460 871 L 458 873 L 458 908 L 460 909 L 465 909 L 465 895 L 467 893 L 482 893 L 482 888 L 467 888 L 465 887 L 465 877 L 483 877 L 484 876 Q 484 871 484 871 L 460 871 Z " /><path fill="rgb(145,120,108)" stroke="rgb(145,120,108)" stroke-width="1" opacity="0.23529411764705882" d="M 650.5 869 L 673.5 869 L 681 874.5 L 682 883.5 L 681 887 Q 678.3 885.9 679 888.5 L 682 891.5 L 684 897.5 L 683 899.5 L 683 901.5 L 683 903.5 L 678.5 909 L 676.5 910 L 649 910 L 649 870.5 L 650.5 869 Z M 652 871 L 650 873 L 650 908 L 652 909 L 673 909 L 679 906 L 681 904 L 682 900 L 680 893 L 675 889 L 677 888 L 680 884 L 679 876 L 673 871 L 652 871 Z " /><path fill="rgb(145,120,108)" stroke="rgb(145,120,108)" stroke-width="1" opacity="0.23529411764705882" d="M 658.5 876 L 660.5 877 L 662.5 877 L 665.5 876 L 670.5 877 L 673 879.5 Q 674 885 670.5 886 L 658.5 887 L 657 885.5 L 657 877.5 L 658.5 876 Z M 661 878 Q 658 880 659 885 L 668 884 L 669 885 L 672 882 Q 670 877 663 878 L 661 878 Z " /><path fill="rgb(145,120,108)" stroke="rgb(145,120,108)" stroke-width="1" opacity="0.23529411764705882" d="M 494.5 878 L 501.5 878 L 502 880 L 503.5 880 Q 506 876.8 512 878 Q 513.8 880.4 513 886.5 L 511.5 888 L 505 889 Q 505.8 892.1 503 891.5 L 503 910 L 493 910 L 493 879.5 L 494.5 878 Z M 495 880 L 494 883 L 494 908 Q 496 911 501 909 L 501 893 L 503 888 L 507 886 L 510 886 Q 512 885 511 880 L 505 881 L 501 884 L 501 880 L 495 880 Z " /><path fill="rgb(145,120,108)" stroke="rgb(145,120,108)" stroke-width="1" opacity="0.23529411764705882" d="M 527.5 878 Q 542.9 875.6 547 884.5 L 549 891.5 L 549 898 L 544 899.5 L 548 904.5 L 541.5 910 L 525.5 910 L 519 904.5 L 517 900.5 L 516 892.5 Q 517.5 884 523.5 880 L 527.5 878 Z M 529 880 L 525 882 Q 519 885 518 893 L 520 903 L 529 909 Q 541 911 545 905 L 543 901 L 537 904 Q 530 905 527 902 L 526 897 L 546 897 L 547 896 L 547 891 L 544 883 L 539 880 L 529 880 Z M 529 899 Q 529 902 533 902 Q 538 903 540 900 L 529 899 Z " /><path fill="rgb(145,120,108)" stroke="rgb(145,120,108)" stroke-width="1" opacity="0.23529411764705882" d="M 562.5 878 L 573.5 878 L 579 881.5 Q 579.7 887.7 575.5 889 L 565.5 887 L 566.5 889 Q 575.1 889.9 579 895.5 L 580 897.5 L 580 899.5 Q 580.1 907.6 574.5 910 L 557.5 910 L 554 907.5 L 553 903.5 L 555 899 Q 560.7 898.2 563.5 902 L 569 902 Q 570.3 899 566.5 900 L 557 896 L 554 888.5 Q 554.9 881.9 559.5 879 L 562.5 878 Z M 563 880 L 561 881 L 556 887 L 557 892 Q 561 897 570 898 L 571 901 Q 574 902 570 904 Q 561 905 558 901 L 555 905 L 562 909 Q 570 911 574 908 L 578 903 L 577 897 L 563 889 L 565 885 L 571 885 L 576 887 L 577 883 Q 573 878 563 880 Z " /><path fill="rgb(145,120,108)" stroke="rgb(145,120,108)" stroke-width="1" opacity="0.23529411764705882" d="M 693.5 878 Q 700.9 876.6 703.5 880 Q 704.8 876.8 710.5 878 Q 713.8 879.8 712 886.5 L 710.5 888 L 704 889 L 702 892.5 L 702 910 L 692.5 910 L 692 909.5 L 692 879.5 L 693.5 878 Z M 694 880 L 694 909 L 695 909 L 700 909 L 700 894 L 706 886 L 710 886 L 710 880 Q 704 879 702 883 L 700 884 L 700 880 L 694 880 Z " /><path fill="rgb(145,120,108)" stroke="rgb(145,120,108)" stroke-width="1" opacity="0.23529411764705882" d="M 727.5 878 L 736.5 878 L 737.5 879 L 739.5 879 L 745 882.5 Q 749.5 887 748 897.5 L 743 899.5 Q 747 900.5 746 906.5 L 741.5 910 L 725.5 910 L 719 905.5 L 716 900.5 L 716 888.5 L 721.5 881 L 727.5 878 Z M 728 880 L 724 882 L 718 890 Q 716 899 720 904 L 728 909 Q 739 911 744 906 Q 745 902 742 901 L 737 904 Q 727 905 725 900 L 726 897 L 746 897 Q 747 889 744 885 Q 740 878 728 880 Z M 728 899 L 728 901 L 732 902 Q 738 903 739 900 L 728 899 Z " /><path fill="rgb(145,120,108)" stroke="rgb(145,120,108)" stroke-width="1" opacity="0.23529411764705882" d="M 763.5 878 L 775.5 878 L 781 882.5 L 783 885.5 L 783 903.5 L 784 908.5 L 782.5 910 L 758.5 910 L 754 904.5 L 753 899.5 L 754 895.5 L 758.5 891 L 764.5 889 L 769.5 890 L 773 888.5 Q 771.3 886.3 766.5 887 Q 763.3 890 757 889 L 756 881 L 763.5 878 Z M 764 880 L 758 884 L 760 887 L 765 885 L 772 885 Q 775 886 775 891 L 774 892 L 762 892 L 760 893 L 755 899 L 756 905 L 762 909 Q 770 911 774 907 Q 776 906 775 909 L 781 909 L 781 909 L 781 886 Q 778 877 764 880 Z " /><path fill="rgb(145,120,108)" stroke="rgb(145,120,108)" stroke-width="1" opacity="0.23529411764705882" d="M 530.5 885 Q 539.5 883.5 541 889.5 L 540.5 892 L 525 892 L 528.5 886 L 530.5 885 Z M 532 887 L 531 888 Q 527 887 528 890 L 539 890 Q 537 886 532 887 Z " /><path fill="rgb(145,120,108)" stroke="rgb(145,120,108)" stroke-width="1" opacity="0.23529411764705882" d="M 729.5 885 Q 737.8 883.7 740 888.5 L 739.5 892 L 725 892 Q 724 887.3 727.5 886 L 729.5 885 Z M 730 887 L 728 890 L 738 890 Q 736 885 735 888 L 732 887 L 730 887 Z " /><path fill="rgb(145,120,108)" stroke="rgb(145,120,108)" stroke-width="1" opacity="0.23529411764705882" d="M 805.5 885 Q 812.8 884.2 815 888.5 Q 817.3 891.7 816 898.5 L 812.5 903 L 805.5 904 L 801 902 L 799 898.5 L 799 891.5 L 803.5 886 L 805.5 885 Z M 807 887 L 804 888 L 800 895 L 802 900 L 807 902 L 812 901 L 814 898 L 815 895 L 814 891 L 810 887 L 807 887 Z " /><path fill="rgb(145,120,108)" stroke="rgb(145,120,108)" stroke-width="1" opacity="0.23529411764705882" d="M 658.5 892 L 671.5 893 L 675 896.5 Q 674.8 901.3 671.5 903 L 657 903 L 657 893.5 L 658.5 892 Z M 661 894 Q 658 896 659 901 L 671 901 L 672 900 Q 675 901 673 897 L 668 894 L 665 895 L 661 894 Z " /><path fill="rgb(145,120,108)" stroke="rgb(145,120,108)" stroke-width="1" opacity="0.23529411764705882" d="M 764.5 896 L 775 896 L 775 900.5 Q 772.8 905.3 764.5 904 L 762 903 L 762 897.5 L 763.5 897 L 764.5 896 Z M 767 898 L 765 899 Q 762 901 765 902 Q 771 903 773 900 Q 773 897 767 898 Z " /><path fill="rgb(247,243,241)" stroke="rgb(247,243,241)" stroke-width="1" opacity="0.9607843137254902" d="M 626 432 L 649.5 432 L 657 436.5 L 658 443.5 L 653 449.5 L 657 452 Q 659.9 454.9 659 462.5 L 654.5 468 L 648.5 470 L 626 470 L 626 432 Z M 636 439 L 636 447 L 646 447 Q 649 446 648 442 Q 645 437 636 439 Z M 636 454 L 636 456 L 636 458 L 635 461 L 640 463 Q 641 461 647 462 Q 650 461 649 457 L 646 454 L 636 454 Z " /><path fill="rgb(247,243,241)" stroke="rgb(247,243,241)" stroke-width="1" opacity="0.9607843137254902" d="M 704 438 Q 712.2 436.6 716 440.5 L 717 449.5 L 724 479 Q 716.5 480.3 713 476.5 L 712 470 L 695 468 L 693 473 Q 686.1 474 683 472 L 683 469.5 L 704 438 Z M 708 449 L 701 459 L 701 461 L 710 462 L 709 451 L 708 449 Z " /><path fill="rgb(247,243,241)" stroke="rgb(247,243,241)" stroke-width="1" opacity="0.9607843137254902" d="M 542.5 444 L 552.5 444 L 555 446.5 L 554 453 L 543.5 452 L 539.5 453 L 537 455.5 L 539.5 459 L 554.5 460 L 561 465.5 L 562 472.5 L 556.5 480 Q 550.5 484 540.5 484 Q 539.2 481.7 534.5 483 L 531 480.5 L 532 474 L 544.5 476 L 548.5 475 L 551 472.5 Q 552.5 468.1 549.5 469 L 548.5 468 L 536.5 468 Q 530.8 466.8 528 462.5 L 527 455.5 Q 528.4 449.4 533.5 447 L 542.5 444 Z " /><path fill="rgb(247,243,241)" stroke="rgb(247,243,241)" stroke-width="1" opacity="0.9607843137254902" d="M 761.5 452 Q 767.3 452.3 770 455.5 L 765 468.5 L 767.5 469 L 784.5 460 L 793 463 L 791.5 466 L 778.5 472 L 776 474.5 L 780 489.5 L 781 499.5 L 779.5 499 L 771 495.5 L 767 479 L 760 482.5 L 756.5 490 Q 750.8 489.8 748 486.5 L 761.5 452 Z " /><path fill="rgb(247,243,241)" stroke="rgb(247,243,241)" stroke-width="1" opacity="0.9607843137254902" d="M 491.5 462 L 494 464.5 L 507 496.5 Q 504.3 499.8 498.5 500 L 484 468.5 L 484 465 L 491.5 462 Z " /><path fill="rgb(247,243,241)" stroke="rgb(247,243,241)" stroke-width="1" opacity="0.9607843137254902" d="M 823 480 L 828.5 481 L 850 494.5 L 845.5 501 L 829.5 491 Q 826.3 492.8 826 497.5 L 840 506.5 L 836.5 513 L 821.5 504 Q 818.3 505.8 818 510.5 L 834 520 Q 834.1 524.9 830.5 527 L 805 511.5 L 823 480 Z " /><path fill="rgb(247,243,241)" stroke="rgb(247,243,241)" stroke-width="1" opacity="0.9607843137254902" d="M 439.5 489 Q 442.8 487.9 442 490.5 L 456.5 513 L 470.5 506 L 474 512.5 L 452.5 526 L 433 493.5 L 439.5 489 Z " /><path fill="rgb(247,243,241)" stroke="rgb(247,243,241)" stroke-width="1" opacity="0.9607843137254902" d="M 403.5 514 L 409 518.5 L 405.5 523 L 395 531.5 L 397 537 L 400.5 537 L 411.5 527 L 413.5 527 L 417 532.5 L 405 543.5 Q 404.5 548.5 408.5 549 L 423.5 537 L 425.5 537 L 429 542.5 L 410.5 559 L 405.5 561 L 384 536.5 L 382 532.5 L 403.5 514 Z " /><path fill="rgb(247,243,241)" stroke="rgb(247,243,241)" stroke-width="1" opacity="0.9607843137254902" d="M 877.5 516 L 879.5 516 L 896 531.5 Q 899 534.5 898 541.5 L 891.5 550 Q 888 553.2 881 552 L 879 565 L 876.5 565 L 871 559.5 L 871 554.5 L 873 547.5 L 867.5 543 L 859.5 550 L 854 544.5 L 854 542.5 L 877.5 516 Z M 881 528 L 873 537 L 881 543 L 887 542 L 889 538 L 888 535 L 881 528 Z " /><path fill="rgb(247,243,241)" stroke="rgb(247,243,241)" stroke-width="1" opacity="0.9607843137254902" d="M 641.5 543 Q 643 545.5 648.5 544 L 655.5 548 L 658.5 548 L 667.5 545 L 680.5 544 L 681.5 545 L 695.5 546 L 707.5 550 Q 726.9 557.6 739 572.5 L 743 579.5 L 746 590.5 L 746 610.5 L 737 652.5 L 736 666.5 Q 738.5 668 737 673.5 L 741.5 679 L 751.5 676 L 764 665.5 L 766 662.5 Q 773.1 657.1 776 647.5 Q 778.5 640 777 628.5 L 776 625 Q 765.4 620.8 758 612.5 L 754 605.5 L 754 596.5 L 757.5 592 L 762.5 591 Q 771.1 593.4 775 600.5 L 786.5 621 L 834.5 645 Q 848.6 653.9 859 666.5 Q 868.7 680.9 874 699 L 877.5 699 L 894.5 691 L 924.5 682 L 935.5 681 L 936.5 680 L 957.5 679 L 958.5 680 L 967.5 680 L 976.5 682 L 991.5 688 Q 1009.9 698.6 1023 714.5 L 1038.5 731 L 1052.5 739 L 1066.5 740 L 1072 739 L 1072 747.5 L 1069.5 748 L 1068.5 749 L 1054.5 749 Q 1044.4 747.1 1037.5 742 L 1016 721.5 L 1002.5 707 Q 993.1 698.4 980.5 693 L 965.5 689 L 950.5 688 L 949.5 689 L 931.5 690 L 910.5 695 L 879 708.5 L 883 726.5 L 883 746.5 Q 877.2 770.7 859.5 783 L 847.5 791 L 818.5 804 L 779.5 815 L 736.5 824 L 706.5 828 L 699.5 830 L 674.5 832 L 673.5 833 L 664.5 833 L 663.5 834 L 633.5 835 L 632.5 836 L 606.5 836 L 605.5 837 L 578.5 837 L 577.5 836 L 556.5 836 L 555.5 835 L 544.5 835 L 543.5 834 L 526.5 833 L 525.5 832 L 502.5 829 L 480.5 823 Q 432.1 803.9 395 773.5 L 393 770.5 Q 384.5 765 386 749.5 Q 389.3 738.8 397.5 733 Q 405 725.5 422.5 728 L 445.5 736 L 494.5 761 L 510.5 767 L 522.5 768 L 528.5 766 L 537 757.5 L 549 737.5 L 559.5 726 L 573.5 720 L 584.5 720 L 601.5 726 L 613 736.5 L 619 747.5 L 626 765.5 L 631.5 771 L 633.5 772 L 644.5 772 Q 661 768 673.5 760 L 688.5 750 L 703 738 Q 701.9 735.3 704.5 736 Q 713.9 724.9 728.5 719 L 744.5 718 Q 755.9 720.6 764.5 726 L 787.5 742 L 797.5 743 L 809.5 738 L 847.5 714 L 866 705 L 864 697.5 L 853 674.5 L 840.5 661 Q 817.2 642.7 787 632 L 787 644.5 L 785 652.5 L 781 660.5 L 762.5 680 L 750.5 687 L 738.5 688 L 732 683.5 Q 724.9 675.1 727 657.5 L 736 616.5 L 737 592.5 L 734 581.5 L 726.5 572 L 716.5 565 L 696.5 556 L 687.5 554 L 671.5 554 L 662 557.5 L 667 570.5 L 673 596.5 L 675 614.5 L 676 615.5 L 677 638.5 L 676 639.5 L 676 649.5 L 673 660.5 L 665.5 672 Q 661.5 677.5 650.5 676 L 641 669.5 L 631 651.5 L 631 648.5 L 627 639.5 L 616 590.5 Q 610.4 578.6 600.5 571 Q 591.8 564.2 579.5 561 L 574.5 560 L 559.5 560 L 546.5 563 Q 537.5 566.5 532 573.5 L 527 581.5 L 527 585 L 531.5 586 L 541.5 592 L 562 610.5 Q 576.5 626.5 586 647.5 L 591 663.5 L 591 674.5 Q 588.9 683.9 582.5 689 Q 577.2 694.2 565.5 693 Q 552.5 690 543.5 683 L 505.5 654 L 487.5 644 L 466.5 638 L 454.5 638 L 445.5 640 L 435.5 645 L 421 656 L 402 681.5 L 386 711.5 L 374 728 L 372 728 L 372 730 Q 369.3 728.9 370 731.5 Q 352.6 749.6 327.5 760 L 302.5 767 L 281.5 768 L 280.5 769 L 264.5 769 L 235.5 764 L 213 756 Q 213.3 749.9 217.5 747 L 231.5 753 L 253.5 758 Q 259.8 756.3 261.5 759 L 291.5 759 L 315.5 754 L 340.5 743 Q 356.6 733.6 368 719.5 L 380 702.5 Q 388.9 682.4 401 665.5 L 421.5 643 Q 430.4 635.4 442.5 631 L 451.5 629 L 468.5 629 Q 488 632.5 502.5 641 L 553.5 678 Q 560 682.5 569.5 684 Q 576.1 683.1 579 678.5 Q 582.8 673.8 581 663.5 L 578 653.5 L 568 634.5 Q 557.5 618.5 543.5 606 L 531.5 597 L 522 594 Q 519 609.3 508.5 618 Q 502.1 625.6 487.5 625 L 483 621.5 Q 480.7 618.3 482 611.5 Q 486.3 598.3 496.5 591 Q 503.3 585.3 514.5 584 L 517 581.5 Q 520.9 567.4 531.5 560 Q 546.2 549.7 571.5 550 L 585.5 553 L 595.5 557 L 612 568 L 620 578.5 L 625 588.5 L 637 640.5 L 641 651.5 L 648 664 L 655.5 667 L 661 662.5 L 664 656.5 L 666 647.5 L 666 619.5 L 665 618.5 L 663 596.5 L 661 591.5 L 659 578.5 L 653 560 L 649.5 560 L 632.5 566 L 624.5 566 L 618 561.5 L 617 557.5 L 619 552 L 628.5 546 L 641.5 543 Z M 511 594 L 498 602 L 492 612 L 492 616 L 500 613 Q 508 607 512 596 Q 513 593 511 594 Z M 766 604 Q 764 607 768 609 L 769 609 L 766 604 Z M 868 714 Q 841 727 819 744 L 801 752 L 787 752 L 777 747 L 760 734 L 742 727 Q 731 727 726 731 L 698 755 L 679 768 L 656 779 L 641 782 L 632 781 L 624 777 L 618 771 L 611 754 L 603 740 Q 597 732 586 730 Q 573 728 567 733 L 558 742 L 543 766 Q 537 774 526 777 L 513 777 L 502 774 L 487 768 L 441 744 L 418 737 Q 410 736 406 739 Q 398 744 395 753 Q 395 760 399 764 Q 411 776 427 785 L 461 804 L 481 813 L 517 822 L 536 824 L 537 825 L 562 826 L 563 827 L 630 827 L 631 826 L 647 826 L 648 825 L 661 825 L 671 823 L 679 823 L 680 822 L 688 822 L 689 821 L 704 820 L 717 817 L 729 816 L 730 815 L 736 815 L 746 812 L 751 812 L 770 807 L 774 807 L 817 795 L 834 788 L 855 775 L 867 762 L 872 751 L 874 740 L 873 726 L 870 716 Q 871 713 868 714 Z " /><path fill="rgb(247,243,241)" stroke="rgb(247,243,241)" stroke-width="1" opacity="0.9607843137254902" d="M 924.5 560 L 927 561.5 L 930 565.5 L 930 569.5 L 924 584 L 937.5 581 L 942.5 581 L 947 586.5 L 947 589 L 921.5 593 L 909.5 601 L 904 593.5 L 913 587 L 924.5 560 Z " /><path fill="rgb(247,243,241)" stroke="rgb(247,243,241)" stroke-width="1" opacity="0.9607843137254902" d="M 357.5 564 L 367.5 565 L 377 572.5 Q 381.1 576.9 380 586.5 L 376 595.5 L 365.5 608 L 362.5 608 L 335 585.5 Q 341.3 574.8 350.5 567 L 357.5 564 Z M 356 574 L 354 575 Q 348 578 348 584 L 365 596 L 371 588 Q 372 581 369 579 L 364 574 L 356 574 Z " /><path fill="rgb(247,243,241)" stroke="rgb(247,243,241)" stroke-width="1" opacity="0.9607843137254902" d="M 1060.5 737 L 1063 737.5 L 1060.5 738 L 1060.5 737 Z " /><path fill="rgb(247,243,241)" stroke="rgb(247,243,241)" stroke-width="1" opacity="0.9607843137254902" d="M 591.5 868 L 596 869 L 596.5 884 Q 599.5 878 610.5 880 L 617 885.5 L 618 904.5 L 618 906.5 L 616.5 909 Q 611.1 909.6 611 908.5 L 611 890.5 L 607.5 886 Q 599.2 884.7 597 889.5 L 596 891.5 L 596 909 Q 590.6 910.5 589 907.5 L 589 870.5 L 591.5 868 Z " /><path fill="rgb(247,243,241)" stroke="rgb(247,243,241)" stroke-width="1" opacity="0.9607843137254902" d="M 818.5 868 L 823 869 L 823 908.5 Q 822.9 909.6 817.5 909 L 816 906 L 810.5 909 L 801.5 909 L 795 904.5 Q 791.1 900.4 792 891.5 L 796.5 883 Q 800.3 878.3 810.5 880 L 816 883 L 816 869.5 L 817.5 869 L 818.5 868 Z M 806 885 L 804 886 L 799 892 L 799 899 L 801 902 L 806 904 L 813 903 L 816 899 Q 817 892 815 889 Q 813 884 806 885 Z " /><path fill="rgb(247,243,241)" stroke="rgb(247,243,241)" stroke-width="1" opacity="0.9607843137254902" d="M 459.5 871 L 483.5 871 Q 484.5 871 484 875.5 L 482.5 877 L 465 877 L 465 886.5 L 466.5 888 L 481.5 888 L 482 893 L 466.5 893 L 465 894.5 L 465 909 L 459.5 909 L 458 907.5 L 458 872.5 L 459.5 871 Z " /><path fill="rgb(247,243,241)" stroke="rgb(247,243,241)" stroke-width="1" opacity="0.9607843137254902" d="M 651.5 871 L 672.5 871 L 679 875.5 L 680 883.5 L 676.5 888 L 675 888.5 L 680 892.5 L 682 899.5 L 681 903.5 L 678.5 906 L 672.5 909 L 651.5 909 L 650 907.5 L 650 872.5 L 651.5 871 Z M 659 876 L 657 878 L 657 886 L 659 887 L 671 886 Q 674 885 673 880 L 671 877 L 666 876 L 663 877 L 661 877 L 659 876 Z M 659 892 L 657 894 L 657 903 L 672 903 Q 675 901 675 897 L 672 893 L 659 892 Z " /><path fill="rgb(247,243,241)" stroke="rgb(247,243,241)" stroke-width="1" opacity="0.9607843137254902" d="M 495 880 L 501 880 L 501 883.5 L 504.5 881 L 511 880 Q 512.3 884.6 509.5 886 L 506.5 886 L 503 888 L 501 892.5 L 501 909 Q 495.6 910.5 494 907.5 L 494 882.5 L 495 880 Z " /><path fill="rgb(247,243,241)" stroke="rgb(247,243,241)" stroke-width="1" opacity="0.9607843137254902" d="M 528.5 880 L 538.5 880 L 544 883 L 547 890.5 L 547 895.5 L 545.5 897 L 526 897 L 527 902 Q 529.6 904.7 536.5 904 L 542.5 901 L 545 904.5 Q 541 911 528.5 909 L 520 902.5 L 518 892.5 Q 519.1 885.1 524.5 882 L 528.5 880 Z M 531 885 L 529 886 L 525 892 L 541 892 L 541 890 Q 540 884 531 885 Z " /><path fill="rgb(247,243,241)" stroke="rgb(247,243,241)" stroke-width="1" opacity="0.9607843137254902" d="M 562.5 880 Q 572.8 878.2 577 882.5 L 576 887 L 570.5 885 L 564.5 885 L 563 888.5 L 577 896.5 L 578 902.5 L 573.5 908 Q 569.7 910.7 561.5 909 L 555 904.5 L 557.5 901 Q 561 905 569.5 904 Q 573.8 902.2 571 900.5 L 569.5 898 Q 560.9 897.1 557 891.5 L 556 886.5 L 560.5 881 L 562.5 880 Z " /><path fill="rgb(247,243,241)" stroke="rgb(247,243,241)" stroke-width="1" opacity="0.9607843137254902" d="M 694 880 L 700 880 L 700 883.5 L 701.5 883 Q 703.8 878.9 710 880 L 710 886 L 705.5 886 L 700 893.5 L 700 909 L 694.5 909 L 694 908.5 L 694 880 Z " /><path fill="rgb(247,243,241)" stroke="rgb(247,243,241)" stroke-width="1" opacity="0.9607843137254902" d="M 727.5 880 Q 740 878 744 884.5 Q 747.1 889.1 746 897 L 725.5 897 L 725 899.5 Q 727.1 905.4 736.5 904 L 741.5 901 Q 744.8 902.2 744 906 Q 739.3 910.5 727.5 909 L 720 903.5 Q 716.3 899.2 718 889.5 L 723.5 882 L 727.5 880 Z M 730 885 L 728 886 Q 724 887 725 892 L 740 892 L 740 889 Q 738 884 730 885 Z " /><path fill="rgb(247,243,241)" stroke="rgb(247,243,241)" stroke-width="1" opacity="0.9607843137254902" d="M 763.5 880 Q 777.5 877.5 781 885.5 L 781 908.5 L 780.5 909 L 775 909 Q 776.1 906.3 773.5 907 Q 770.3 910.8 761.5 909 L 756 904.5 L 755 898.5 L 759.5 893 L 761.5 892 L 773.5 892 L 775 890.5 Q 775.5 885.5 771.5 885 L 764.5 885 L 759.5 887 L 758 883.5 L 763.5 880 Z M 765 896 L 764 897 L 762 898 L 762 903 L 765 904 Q 773 905 775 901 L 775 896 L 765 896 Z " /></svg>